# xmcd CD database file
#
# Track frame offsets:
#	150
#	28415
#	53375
#	100937
#	119512
#	126670
#	136935
#	145592
#	172459
#	189207
#	217732
#
# Disc length: 3861 seconds
#
# Revision: 3
# Processed by: cddbd v1.5.1PL0 Copyright (c) Steve Scherf et al.
# Submitted via: CDex 1.51
#
DISCID=a10f130b
DTITLE=浜松交響吹奏楽団 - 交響組曲第2番「GR」より
DYEAR=1900
DGENRE=
TTITLE0=Jalan-jalan〜神々の島の幻影〜
TTITLE1=吹奏楽のためのプレリュード〜「時計台の鐘」の旋律による
TTITLE2=出エジプト記
TTITLE3=「愛の選択」のテーマ
TTITLE4=ジョイフル・メドレー 風笛〜あすかのテーマ〜
TTITLE5=ジョイフル・メドレー ハッピートーク
TTITLE6=ジョイフル･メドレー あなた大好き!
TTITLE7=HANA-BI
TTITLE8=青春の輝き
TTITLE9=主よ、私を導きたまえ
TTITLE10=交響組曲第2番「GR」より
EXTD=
EXTT0=
EXTT1=
EXTT2=
EXTT3=
EXTT4=
EXTT5=
EXTT6=
EXTT7=
EXTT8=
EXTT9=
EXTT10=
PLAYORDER=
